<svg width="17" height="16" viewBox="0 0 17 16" fill="none" xmlns="http://www.w3.org/2000/svg">
<path d="M16.069 9.33333V7.33333L13.9037 7.038C13.7763 6.52981 13.5741 6.04338 13.3037 5.59467L14.6263 3.85467L13.2143 2.44067L11.4743 3.76333C11.0256 3.4929 10.5392 3.29068 10.031 3.16333L9.73568 1H7.73568L7.44034 3.16533C6.93215 3.29268 6.44572 3.4949 5.99701 3.76533L4.25701 2.44067L2.84301 3.85467L4.16568 5.59467C3.89524 6.04338 3.69303 6.52981 3.56568 7.038L1.40234 7.33333V9.33333L3.56768 9.62867C3.69503 10.1369 3.89724 10.6233 4.16768 11.072L2.84501 12.812L4.25901 14.226L5.99901 12.9033C6.44772 13.1738 6.93415 13.376 7.44234 13.5033L7.73568 15.6667H9.73568L10.031 13.5013C10.5392 13.374 11.0256 13.1718 11.4743 12.9013L13.2143 14.224L14.6283 12.81L13.3057 11.07C13.5761 10.6213 13.7783 10.1349 13.9057 9.62667L16.069 9.33333Z" stroke="#646464" stroke-miterlimit="10" stroke-linecap="square"/>
<path d="M8.73437 10.333C9.83894 10.333 10.7344 9.43758 10.7344 8.33301C10.7344 7.22844 9.83894 6.33301 8.73437 6.33301C7.62981 6.33301 6.73438 7.22844 6.73438 8.33301C6.73438 9.43758 7.62981 10.333 8.73437 10.333Z" stroke="#646464" stroke-miterlimit="10" stroke-linecap="square"/>
</svg>
